<svg xmlns="http://www.w3.org/2000/svg" xmlns:xlink="http://www.w3.org/1999/xlink" viewBox="0 0 280.93 290.71"><defs><style>.cls-1,.cls-14,.cls-17,.cls-24,.cls-6,.cls-7{fill:none;}.cls-2{fill:#2d2d2d;}.cls-3{fill:#d72028;}.cls-3,.cls-6,.cls-8{stroke:#601b1a;stroke-width:9px;}.cls-12,.cls-14,.cls-15,.cls-17,.cls-23,.cls-24,.cls-3,.cls-6,.cls-7,.cls-8{stroke-miterlimit:10;}.cls-4{clip-path:url(#clip-path);}.cls-5,.cls-8{fill:#a91e22;}.cls-12,.cls-7{stroke:#2d2d2d;}.cls-12,.cls-14,.cls-15,.cls-17,.cls-7{stroke-width:7px;}.cls-9{clip-path:url(#clip-path-2);}.cls-10{fill:#d71f26;}.cls-11{fill:#a91f23;}.cls-12,.cls-18{fill:#a7a9ac;}.cls-13{fill:#cfcfce;}.cls-14,.cls-15,.cls-17,.cls-24{stroke:#382712;}.cls-14{stroke-linecap:round;}.cls-15{fill:#ffc520;}.cls-16{fill:#fee341;}.cls-19{clip-path:url(#clip-path-3);}.cls-20{fill:#d2cdd1;}.cls-21{clip-path:url(#clip-path-4);}.cls-22{fill:#cfd1d3;}.cls-23{fill:#e9a822;stroke:#594219;}.cls-23,.cls-24{stroke-width:6px;}</style><clipPath id="clip-path" transform="translate(0.08)"><path class="cls-1" d="M123.59,126.46,88.87,51.8a5.17,5.17,0,0,1,4-7.3l85.41-11.83a4.54,4.54,0,0,1,5.07,5.39L165.59,125.8l-42,.66"/></clipPath><clipPath id="clip-path-2" transform="translate(0.08)"><path class="cls-1" d="M228.42,124.46c-11.33-8.83-39.1.15-77.5,1.34-39.6,1.22-73.67-2.67-80.83,7.5s-1.85,27.5-.34,48.5c1.42,19.7-2,33.83,5.34,43.5s150.66-3,158.83-12.34,5-22.73,4.67-41.16C238.22,150,239.75,133.3,228.42,124.46Z"/></clipPath><clipPath id="clip-path-3" transform="translate(0.08)"><path class="cls-1" d="M3.75,128.63,6.75,80S27.5,87.55,25.92,106.8,3.75,128.63,3.75,128.63Z"/></clipPath><clipPath id="clip-path-4" transform="translate(0.08)"><path class="cls-1" d="M276.25,109.63l-17.33-41.5s-17.08,9.33-8.67,28.92S276.25,109.63,276.25,109.63Z"/></clipPath></defs><title>robot</title><g id="Layer_2" data-name="Layer 2"><polygon class="cls-2" points="255.73 68.09 197.55 8.62 142.02 40.37 138.77 34.17 198.91 0 260.73 63.2 255.73 68.09"/><polygon class="cls-2" points="8.83 81.13 3.63 75.07 35.46 27.06 118.73 36.65 117.93 43.61 39.2 34.54 8.83 81.13"/><path class="cls-3" d="M123.59,126.46,88.87,51.8a5.17,5.17,0,0,1,4-7.3l85.41-11.83a4.54,4.54,0,0,1,5.07,5.39L165.59,125.8l-42,.66" transform="translate(0.08)"/><g class="cls-4"><polygon class="cls-5" points="129 30.21 141.58 129.3 157 126.88 152.33 20.55 129 30.21"/><path class="cls-5" d="M114.25,110.21a50.5,50.5,0,0,1,26.25-.66,89.81,89.81,0,0,0,27.63,2.5l-1.95,12.56-39.93,2.94Z" transform="translate(0.08)"/><path class="cls-5" d="M89.25,105.38,74.87,33.8c-1.47-3.15,41-11.48,40.38-8.42l29.67,102.33-26-3.16" transform="translate(0.08)"/></g><path class="cls-6" d="M123.59,126.46,88.87,51.8a5.17,5.17,0,0,1,4-7.3l85.41-11.83a4.54,4.54,0,0,1,5.07,5.39L165.59,125.8l-42,.66" transform="translate(0.08)"/><path class="cls-7" d="M45.92,165.46l12.7-46.8A5,5,0,0,1,64.06,115l64.32,10.68" transform="translate(0.08)"/><g id="head"><path class="cls-8" d="M228.42,124.46c-11.33-8.83-39.1.15-77.5,1.34-39.6,1.22-73.67-2.67-80.83,7.5s-1.85,27.5-.34,48.5c1.42,19.7-2,33.83,5.34,43.5s150.66-3,158.83-12.34,5-22.73,4.67-41.16C238.22,150,239.75,133.3,228.42,124.46Z" transform="translate(0.08)"/><g class="cls-9"><path class="cls-10" d="M231.38,123.92c-11.34-8.83-30.86-1.31-69.25-.12-39.6,1.22-73.34,0-80.5,10.12s-1.89,12.88-.38,33.88c1.42,19.7-2,33.83,5.34,43.5s135.62,0,143.79-9.38,9.68-13.56,9.37-32C239.39,148.07,242.71,132.76,231.38,123.92Z" transform="translate(0.08)"/></g><path class="cls-6" d="M228.42,124.46c-11.33-8.83-39.1.15-77.5,1.34-39.6,1.22-73.67-2.67-80.83,7.5s-1.85,27.5-.34,48.5c1.42,19.7-2,33.83,5.34,43.5s150.66-3,158.83-12.34,5-22.73,4.67-41.16C238.22,150,239.75,133.3,228.42,124.46Z" transform="translate(0.08)"/></g><circle class="cls-5" cx="177.83" cy="154.05" r="17.5"/><path class="cls-11" d="M170.62,153.83a16,16,0,0,1-1.19,1.8c-.43.54-.89,1.07-1.37,1.59a25.62,25.62,0,0,1-3.06,2.84,34.75,34.75,0,0,1-7,4.34,43.55,43.55,0,0,1-15.9,4c-1.37,0-2.74.06-4.11.06s-2.73-.15-4.08-.3c-.66,0-1.39-.17-2.11-.3s-1.43-.27-2.14-.41-1.46-.4-2.18-.62l-1.07-.36c-.36-.12-.73-.3-1.09-.45a16.54,16.54,0,0,1-2.15-1.07,19,19,0,0,1-2.09-1.39,12.52,12.52,0,0,1-3.43-4.08,9.92,9.92,0,0,1-.89-2.55c0-.45-.1-.89-.13-1.31a8.84,8.84,0,0,1,.08-1.27c.12-.82-.81-.81-.5-1.51a19.08,19.08,0,0,1,2.42-2.67l.09-.08a.33.33,0,0,1,.48,0,.34.34,0,0,1,.09.33,7.21,7.21,0,0,0,1.32,6.71,11.38,11.38,0,0,0,6.19,3.49,10.88,10.88,0,0,0,1.8.39c.61.1,1.21.23,1.83.3,1.24.07,2.47.24,3.73.24s2.5,0,3.75,0l3.75-.16A69.19,69.19,0,0,0,156.41,159a58.87,58.87,0,0,0,7.1-2.44,42.24,42.24,0,0,0,6.71-3.31.33.33,0,0,1,.46.11.3.3,0,0,1,0,.33Z" transform="translate(0.08)"/><path d="M168.62,155.83a16,16,0,0,1-1.19,1.8c-.43.54-.89,1.07-1.37,1.59a25.62,25.62,0,0,1-3.06,2.84,34.75,34.75,0,0,1-7,4.34,43.55,43.55,0,0,1-15.9,4c-1.37,0-2.74.06-4.11.06s-2.73-.15-4.08-.3c-.66,0-1.39-.17-2.11-.3s-1.43-.27-2.14-.41-1.46-.4-2.18-.62l-1.07-.36c-.36-.12-.73-.3-1.09-.45a16.54,16.54,0,0,1-2.15-1.07,19,19,0,0,1-2.09-1.39,12.52,12.52,0,0,1-3.43-4.08,9.92,9.92,0,0,1-.89-2.55c0-.45-.1-.89-.13-1.31a8.84,8.84,0,0,1,.08-1.27,9.21,9.21,0,0,1,.65-2.29,7.64,7.64,0,0,1,1.27-1.89l.09-.08a.33.33,0,0,1,.48,0,.34.34,0,0,1,.09.33,7.21,7.21,0,0,0,1.32,6.71,11.38,11.38,0,0,0,6.19,3.49,10.88,10.88,0,0,0,1.8.39c.61.1,1.21.23,1.83.3,1.24.07,2.47.24,3.73.24s2.5,0,3.75,0l3.75-.16A69.19,69.19,0,0,0,154.41,161a58.87,58.87,0,0,0,7.1-2.44,42.24,42.24,0,0,0,6.71-3.31.33.33,0,0,1,.46.11.3.3,0,0,1,0,.33Z" transform="translate(0.08)"/><g id="l_hand" data-name="l hand"><circle class="cls-12" cx="40.33" cy="178.8" r="14.33"/><circle class="cls-13" cx="42.75" cy="176.17" r="8.5"/><circle class="cls-7" cx="40.33" cy="178.8" r="14.33"/></g><path class="cls-7" d="M162.92,125.8l42.7-43.51a2.54,2.54,0,0,1,4.12,2.84L186.25,135.8" transform="translate(0.08)"/><polyline class="cls-14" points="228.46 262.67 226.67 239.71 201.67 264.21 199.17 233.21 179.42 252.96 178.17 229.46 158.42 246.71 154.92 227.71"/><g id="antenna_bob" data-name="antenna bob"><circle class="cls-15" cx="244.04" cy="270.09" r="17.13"/><circle class="cls-16" cx="246.33" cy="267.05" r="12.5"/><circle class="cls-17" cx="244.04" cy="270.09" r="17.13"/></g><g id="l_foot" data-name="l foot"><path class="cls-18" d="M3.75,128.63,6.75,80S27.5,87.55,25.92,106.8,3.75,128.63,3.75,128.63Z" transform="translate(0.08)"/><g class="cls-19"><path class="cls-20" d="M-.08,117.46l3-48.66s20.75,7.58,19.17,26.83S-.08,117.46-.08,117.46Z" transform="translate(0.08)"/></g><path class="cls-2" d="M0,132.63,3.55,75.07,8,76.68c8.05,2.94,22.88,13.07,21.46,30.4s-17.13,24-25.22,25ZM9.92,85.4,7.54,124.13c5.35-1.78,14-6.36,14.89-17.62S15.24,88.53,9.92,85.4Z" transform="translate(0.08)"/></g><g id="r_foot" data-name="r foot"><path class="cls-18" d="M276.25,109.63l-17.33-41.5s-17.08,9.33-8.67,28.92S276.25,109.63,276.25,109.63Z" transform="translate(0.08)"/><g class="cls-21"><path class="cls-22" d="M274.42,96.13l-17.33-41.5S240,64,248.42,83.55,274.42,96.13,274.42,96.13Z" transform="translate(0.08)"/></g><path class="cls-2" d="M269.12,114.42c-7.51,0-16.71-3.49-22.08-16-7.66-17.81,3.33-29.62,10.2-33.37l3.41-1.86,20.2,48.37-3.3,1.31A23.28,23.28,0,0,1,269.12,114.42ZM257.39,73.56c-3.8,3.43-8.87,10.59-3.92,22.11s13.27,12.2,18,11.56Z" transform="translate(0.08)"/></g><path class="cls-6" d="M181.44,123.43c-9.19,1-19.41,2-30.52,2.37" transform="translate(0.08)"/><g id="r_hand" data-name="r hand"><circle class="cls-12" cx="179.83" cy="148.55" r="14.33"/><circle class="cls-13" cx="181.33" cy="145.55" r="8.5"/><circle class="cls-7" cx="179.83" cy="148.55" r="14.33"/></g></g><g id="eyes"><circle class="cls-23" cx="112.17" cy="191.63" r="12.17"/><circle class="cls-23" cx="193.17" cy="188.3" r="12.17"/><circle class="cls-16" cx="191.83" cy="191.55" r="8.25"/><circle class="cls-16" cx="114.83" cy="195.3" r="8.25"/><circle class="cls-24" cx="112.17" cy="191.63" r="12.17"/><circle class="cls-24" cx="193.17" cy="188.3" r="12.17"/></g></svg>